<?xml version="1.0" encoding="UTF-8"?>
<svg width="1200pt" height="1200pt" version="1.1" viewBox="0 0 1200 1200" xmlns="http://www.w3.org/2000/svg">
 <path d="m764.64 499.12h-329.38v-88.891c0-31.781-12.656-62.25-35-84.703-22.5-22.469-52.969-35.094-84.688-35.094h-76.094c-31.719 0-62.188 12.625-84.688 35.094-22.5 22.453-35.156 52.922-35.156 84.703v88.891h-10.312c-19.062 0-37.344 7.5625-50.781 21.047-13.438 13.484-21.094 31.766-21.094 50.828v58.016c0 19.062 7.6562 37.344 21.094 50.812 13.438 13.484 31.719 21.062 50.781 21.062h10.312v88.891c0 31.766 12.656 62.234 35.156 84.688 22.5 22.469 52.969 35.094 84.688 35.094h76.094c31.719 0 62.188-12.625 84.688-35.094 22.344-22.453 35-52.922 35-84.688v-88.891h329.38v88.891c0 31.766 12.656 62.234 35.156 84.688 22.5 22.469 52.969 35.094 84.688 35.094h76.094c31.719 0 62.188-12.625 84.688-35.094 22.344-22.453 35-52.922 35-84.688v-88.891h10.312c19.062 0 37.344-7.5781 50.938-21.062 13.438-13.469 20.938-31.75 20.938-50.812v-58.016c0-19.062-7.5-37.344-20.938-50.828-13.594-13.484-31.875-21.047-50.938-21.047h-10.312v-88.891c0-31.781-12.656-62.25-35-84.703-22.5-22.469-52.969-35.094-84.688-35.094h-76.094c-31.719 0-62.188 12.625-84.688 35.094-22.5 22.453-35.156 52.922-35.156 84.703zm-379.38-88.891v379.55c0 18.5-7.3438 36.25-20.469 49.344-12.969 13.078-30.781 20.438-49.219 20.438h-76.094c-18.438 0-36.25-7.3594-49.375-20.438-13.125-13.094-20.469-30.844-20.469-49.344v-379.55c0-18.516 7.3438-36.266 20.469-49.359 13.125-13.078 30.938-20.438 49.375-20.438h76.094c18.438 0 36.25 7.3594 49.219 20.438 13.125 13.094 20.469 30.844 20.469 49.359zm645 0v379.55c0 18.5-7.3438 36.25-20.469 49.344-12.969 13.078-30.781 20.438-49.219 20.438h-76.094c-18.438 0-36.25-7.3594-49.375-20.438-12.969-13.094-20.469-30.844-20.469-49.344v-379.55c0-18.516 7.5-36.266 20.469-49.359 13.125-13.078 30.938-20.438 49.375-20.438h76.094c18.438 0 36.25 7.3594 49.219 20.438 13.125 13.094 20.469 30.844 20.469 49.359zm50 240.66h10.312c5.7812 0 11.406-2.3125 15.469-6.4062 4.2188-4.1094 6.4062-9.6719 6.4062-15.469v-58.031c0-5.7969-2.1875-11.359-6.4062-15.453-4.0625-4.1094-9.6875-6.4062-15.469-6.4062h-10.312zm-960.62-101.77h-10.312c-5.7812 0-11.25 2.2969-15.469 6.4062-4.0625 4.0938-6.4062 9.6562-6.4062 15.453v58.031c0 5.7969 2.3438 11.359 6.4062 15.469 4.2188 4.0938 9.6875 6.4062 15.469 6.4062h10.312zm315.62 0v101.77h329.38v-101.77z" fill-rule="evenodd"/>
</svg>
